<svg xmlns="http://www.w3.org/2000/svg" xmlns:xlink="http://www.w3.org/1999/xlink" width="880" height="624.46"><rect width="880" height="624.46" rx="5" ry="5" class="a"/><svg y="0%" x="0%"><circle cx="20" cy="20" r="6" fill="#ff5f58"/><circle cx="40" cy="20" r="6" fill="#ffbd2e"/><circle cx="60" cy="20" r="6" fill="#18c132"/></svg><svg height="564.46" viewBox="0 0 84 56.446" width="840" x="15" xmlns="http://www.w3.org/2000/svg" xmlns:xlink="http://www.w3.org/1999/xlink" y="50"><style>@keyframes n{0%{transform:translateX(0)}8.2%{transform:translateX(-84px)}9.3%{transform:translateX(-168px)}10.5%{transform:translateX(-252px)}11.6%{transform:translateX(-336px)}12.7%{transform:translateX(-420px)}13.9%{transform:translateX(-504px)}15%{transform:translateX(-588px)}16.2%{transform:translateX(-672px)}17.3%{transform:translateX(-756px)}18.5%{transform:translateX(-840px)}25.8%{transform:translateX(-924px)}27.8%{transform:translateX(-1008px)}29.7%{transform:translateX(-1092px)}31.7%{transform:translateX(-1176px)}33.7%{transform:translateX(-1260px)}35.6%{transform:translateX(-1344px)}37.6%{transform:translateX(-1428px)}39.5%{transform:translateX(-1512px)}41.5%{transform:translateX(-1596px)}43.5%{transform:translateX(-1680px)}45.4%{transform:translateX(-1764px)}47.4%{transform:translateX(-1848px)}49.3%{transform:translateX(-1932px)}51.3%{transform:translateX(-2016px)}53.3%{transform:translateX(-2100px)}55.2%{transform:translateX(-2184px)}57.2%{transform:translateX(-2268px)}59.2%{transform:translateX(-2352px)}to{transform:translateX(-2436px)}}.a{fill:#282d35}.f{fill:#a8cc8c;font-weight:700;white-space:pre}.g{fill:#b9c0cb}.g,.h,.i,.j,.k{white-space:pre}.h{fill:#b9c0cb;font-weight:700}.i,.j,.k{fill:#a8cc8c}.j,.k{fill:#66c2cd}.k{fill:#dbab79}</style><g font-family="Monaco,Consolas,Menlo,'Bitstream Vera Sans Mono','Powerline Symbols',monospace" font-size="1.67"><defs><symbol id="1"><text y="1.67" class="f">$</text><text x="2.004" y="1.67" class="g">gtir</text></symbol><symbol id="2"><text y="1.67" class="f">$</text><text x="2.004" y="1.67" class="g">gtir</text><text x="7.014" y="1.67" class="g">demo</text></symbol><symbol id="3"><text x="2.004" y="1.67" class="h">❓</text><text x="5.01" y="1.67" class="h">&quot;compute</text><text x="14.028" y="1.67" class="h">the</text><text x="18.036" y="1.67" class="h">edit</text><text x="23.046" y="1.67" class="h">distance</text><text x="32.064" y="1.67" class="h">between</text><text x="40.08" y="1.67" class="h">two</text><text x="44.088" y="1.67" class="h">strings&quot;</text></symbol><symbol id="4"><text x="6.012" y="1.67" class="g">grep</text><text x="11.022" y="1.67" class="g">-rin</text><text x="16.032" y="1.67" class="g">distance</text><text x="27.054" y="1.67" class="g">→</text><text x="30.06" y="1.67" class="g">5</text><text x="32.064" y="1.67" class="g">matches</text><text x="40.08" y="1.67" class="g">in</text><text x="43.086" y="1.67" class="g">2</text><text x="45.09" y="1.67" class="g">files</text><text x="52.104" y="1.67" class="g">(graph/dijkstra.rs,</text><text x="72.144" y="1.67" class="g">text/levensh</text></symbol><symbol id="5"><text y="1.67" class="g">tein.py)</text></symbol><symbol id="6"><text x="6.012" y="1.67" class="i">gtir</text><text x="11.022" y="1.67" class="i">search</text><text x="20.04" y="1.67" class="g">→</text><text x="23.046" y="1.67" class="i">top</text><text x="27.054" y="1.67" class="i">hit:</text></symbol><symbol id="7"><text x="9.018" y="1.67" class="h">text/levenshtein.py:1-16</text></symbol><symbol id="8"><text x="9.018" y="1.67" class="j">┌──────────────────────────────────────────────────────────┐</text></symbol><symbol id="9"><text x="9.018" y="1.67" class="j">│</text><text x="11.022" y="1.67" class="j">def</text><text x="15.03" y="1.67" class="j">levenshtein(s:</text><text x="30.06" y="1.67" class="j">str,</text><text x="35.07" y="1.67" class="j">t:</text><text x="38.076" y="1.67" class="j">str)</text><text x="43.086" y="1.67" class="j">-&gt;</text><text x="46.092" y="1.67" class="j">int:</text><text x="68.136" y="1.67" class="j">│</text></symbol><symbol id="10"><text x="9.018" y="1.67" class="j">│</text><text x="15.03" y="1.67" class="j">&quot;&quot;&quot;Classic</text><text x="26.052" y="1.67" class="j">Wagner-Fischer</text><text x="41.082" y="1.67" class="j">dynamic-programming</text><text x="61.122" y="1.67" class="j">edit</text><text x="66.132" y="1.67" class="j">…</text><text x="68.136" y="1.67" class="j">│</text></symbol><symbol id="11"><text x="9.018" y="1.67" class="j">│</text><text x="15.03" y="1.67" class="j">m,</text><text x="18.036" y="1.67" class="j">n</text><text x="20.04" y="1.67" class="j">=</text><text x="22.044" y="1.67" class="j">len(s),</text><text x="30.06" y="1.67" class="j">len(t)</text><text x="68.136" y="1.67" class="j">│</text></symbol><symbol id="12"><text x="9.018" y="1.67" class="j">│</text><text x="15.03" y="1.67" class="j">dp</text><text x="18.036" y="1.67" class="j">=</text><text x="20.04" y="1.67" class="j">list(range(n</text><text x="33.066" y="1.67" class="j">+</text><text x="35.07" y="1.67" class="j">1))</text><text x="68.136" y="1.67" class="j">│</text></symbol><symbol id="13"><text x="9.018" y="1.67" class="j">└──────────────────────────────────────────────────────────┘</text></symbol><symbol id="14"><text x="9.018" y="1.67" class="i">↑</text><text x="11.022" y="1.67" class="i">matched</text><text x="19.038" y="1.67" class="i">by</text><text x="22.044" y="1.67" class="i">meaning</text><text x="30.06" y="1.67" class="i">—</text><text x="32.064" y="1.67" class="i">your</text><text x="37.074" y="1.67" class="i">query</text><text x="43.086" y="1.67" class="i">never</text><text x="49.098" y="1.67" class="i">said</text><text x="54.108" y="1.67" class="i">&quot;levenshtein&quot;</text></symbol><symbol id="15"><text x="2.004" y="1.67" class="g">to</text><text x="5.01" y="1.67" class="g">find</text><text x="10.02" y="1.67" class="g">it,</text><text x="14.028" y="1.67" class="g">you</text><text x="18.036" y="1.67" class="g">read:</text><text x="26.052" y="1.67" class="g">grep</text><text x="31.062" y="1.67" class="g">→</text><text x="33.066" y="1.67" class="g">474</text><text x="37.074" y="1.67" class="g">tokens</text><text x="44.088" y="1.67" class="g">(the</text><text x="49.098" y="1.67" class="g">files</text><text x="55.11" y="1.67" class="g">it</text><text x="58.116" y="1.67" class="g">hit)</text><text x="65.13" y="1.67" class="g">·</text><text x="69.138" y="1.67" class="i">gtir</text><text x="74.148" y="1.67" class="i">→</text><text x="76.152" y="1.67" class="i">187</text><text x="80.16" y="1.67" class="i">(one</text></symbol><symbol id="16"><text x="1.002" y="1.67" class="i">span)</text><text x="9.018" y="1.67" class="k">(≈</text><text x="12.024" y="1.67" class="k">3×</text><text x="15.03" y="1.67" class="k">less)</text></symbol><symbol id="a"><path fill="transparent" d="M0 0h84v27H0z"/></symbol><symbol id="b"><path fill="#6f7683" d="M0 0h1.102v2.171H0z"/></symbol></defs><path class="a" d="M0 0h84v56.446H0z"/><g style="animation-duration:6.12s;animation-iteration-count:infinite;animation-name:n;animation-timing-function:steps(1,end)"><svg width="2520"><svg><use xlink:href="#a"/><use xlink:href="#b" x="-.004"/></svg><svg x="84"><use xlink:href="#a"/><use xlink:href="#b" x="1.996"/><text y="1.67" class="f">$</text></svg><svg x="168"><use xlink:href="#a"/><use xlink:href="#b" x="2.996"/><text y="1.67" class="f">$</text><text x="2.004" y="1.67" class="g">g</text></svg><svg x="252"><use xlink:href="#a"/><use xlink:href="#b" x="3.996"/><text y="1.67" class="f">$</text><text x="2.004" y="1.67" class="g">gt</text></svg><svg x="336"><use xlink:href="#a"/><use xlink:href="#b" x="4.996"/><text y="1.67" class="f">$</text><text x="2.004" y="1.67" class="g">gti</text></svg><svg x="420"><use xlink:href="#a"/><use xlink:href="#b" x="5.996"/><use xlink:href="#1"/></svg><svg x="504"><use xlink:href="#a"/><use xlink:href="#b" x="6.996"/><use xlink:href="#1"/></svg><svg x="588"><use xlink:href="#a"/><use xlink:href="#b" x="7.996"/><text y="1.67" class="f">$</text><text x="2.004" y="1.67" class="g">gtir</text><text x="7.014" y="1.67" class="g">d</text></svg><svg x="672"><use xlink:href="#a"/><use xlink:href="#b" x="8.996"/><text y="1.67" class="f">$</text><text x="2.004" y="1.67" class="g">gtir</text><text x="7.014" y="1.67" class="g">de</text></svg><svg x="756"><use xlink:href="#a"/><use xlink:href="#b" x="9.996"/><text y="1.67" class="f">$</text><text x="2.004" y="1.67" class="g">gtir</text><text x="7.014" y="1.67" class="g">dem</text></svg><svg x="840"><use xlink:href="#a"/><use xlink:href="#b" x="10.996"/><use xlink:href="#2"/></svg><svg x="924"><use xlink:href="#a"/><use xlink:href="#b" x="-.004" y="2.146"/><use xlink:href="#2"/></svg><svg x="1008"><use xlink:href="#a"/><use xlink:href="#b" x="-.004" y="4.317"/><use xlink:href="#2"/></svg><svg x="1092"><use xlink:href="#a"/><use xlink:href="#b" x="-.004" y="6.488"/><use xlink:href="#2"/><use xlink:href="#3" y="4.342"/></svg><svg x="1176"><use xlink:href="#a"/><use xlink:href="#b" x="-.004" y="8.659"/><use xlink:href="#2"/><use xlink:href="#3" y="4.342"/></svg><svg x="1260"><use xlink:href="#a"/><use xlink:href="#b" x="-.004" y="13.001"/><use xlink:href="#2"/><use xlink:href="#3" y="4.342"/><use xlink:href="#4" y="8.684"/><use xlink:href="#5" y="10.855"/></svg><svg x="1344"><use xlink:href="#a"/><use xlink:href="#b" x="-.004" y="15.172"/><use xlink:href="#2"/><use xlink:href="#3" y="4.342"/><use xlink:href="#4" y="8.684"/><use xlink:href="#5" y="10.855"/><use xlink:href="#6" y="13.026"/></svg><svg x="1428"><use xlink:href="#a"/><use xlink:href="#b" x="-.004" y="17.343"/><use xlink:href="#2"/><use xlink:href="#3" y="4.342"/><use xlink:href="#4" y="8.684"/><use xlink:href="#5" y="10.855"/><use xlink:href="#6" y="13.026"/></svg><svg x="1512"><use xlink:href="#a"/><use xlink:href="#b" x="-.004" y="19.514"/><use xlink:href="#2"/><use xlink:href="#3" y="4.342"/><use xlink:href="#4" y="8.684"/><use xlink:href="#5" y="10.855"/><use xlink:href="#6" y="13.026"/><use xlink:href="#7" y="17.368"/></svg><svg x="1596"><use xlink:href="#a"/><use xlink:href="#b" x="-.004" y="21.685"/><use xlink:href="#2"/><use xlink:href="#3" y="4.342"/><use xlink:href="#4" y="8.684"/><use xlink:href="#5" y="10.855"/><use xlink:href="#6" y="13.026"/><use xlink:href="#7" y="17.368"/><use xlink:href="#8" y="19.539"/></svg><svg x="1680"><use xlink:href="#a"/><use xlink:href="#b" x="-.004" y="23.856"/><use xlink:href="#2"/><use xlink:href="#3" y="4.342"/><use xlink:href="#4" y="8.684"/><use xlink:href="#5" y="10.855"/><use xlink:href="#6" y="13.026"/><use xlink:href="#7" y="17.368"/><use xlink:href="#8" y="19.539"/><use xlink:href="#9" y="21.71"/></svg><svg x="1764"><use xlink:href="#a"/><use xlink:href="#b" x="-.004" y="26.027"/><use xlink:href="#2"/><use xlink:href="#3" y="4.342"/><use xlink:href="#4" y="8.684"/><use xlink:href="#5" y="10.855"/><use xlink:href="#6" y="13.026"/><use xlink:href="#7" y="17.368"/><use xlink:href="#8" y="19.539"/><use xlink:href="#9" y="21.71"/><use xlink:href="#10" y="23.881"/></svg><svg x="1848"><use xlink:href="#a"/><use xlink:href="#b" x="-.004" y="28.198"/><use xlink:href="#2"/><use xlink:href="#3" y="4.342"/><use xlink:href="#4" y="8.684"/><use xlink:href="#5" y="10.855"/><use xlink:href="#6" y="13.026"/><use xlink:href="#7" y="17.368"/><use xlink:href="#8" y="19.539"/><use xlink:href="#9" y="21.71"/><use xlink:href="#10" y="23.881"/><use xlink:href="#11" y="26.052"/></svg><svg x="1932"><use xlink:href="#a"/><use xlink:href="#b" x="-.004" y="30.369"/><use xlink:href="#2"/><use xlink:href="#3" y="4.342"/><use xlink:href="#4" y="8.684"/><use xlink:href="#5" y="10.855"/><use xlink:href="#6" y="13.026"/><use xlink:href="#7" y="17.368"/><use xlink:href="#8" y="19.539"/><use xlink:href="#9" y="21.71"/><use xlink:href="#10" y="23.881"/><use xlink:href="#11" y="26.052"/><use xlink:href="#12" y="28.223"/></svg><svg x="2016"><use xlink:href="#a"/><use xlink:href="#b" x="-.004" y="32.54"/><use xlink:href="#2"/><use xlink:href="#3" y="4.342"/><use xlink:href="#4" y="8.684"/><use xlink:href="#5" y="10.855"/><use xlink:href="#6" y="13.026"/><use xlink:href="#7" y="17.368"/><use xlink:href="#8" y="19.539"/><use xlink:href="#9" y="21.71"/><use xlink:href="#10" y="23.881"/><use xlink:href="#11" y="26.052"/><use xlink:href="#12" y="28.223"/><use xlink:href="#13" y="30.394"/></svg><svg x="2100"><use xlink:href="#a"/><use xlink:href="#b" x="-.004" y="34.711"/><use xlink:href="#2"/><use xlink:href="#3" y="4.342"/><use xlink:href="#4" y="8.684"/><use xlink:href="#5" y="10.855"/><use xlink:href="#6" y="13.026"/><use xlink:href="#7" y="17.368"/><use xlink:href="#8" y="19.539"/><use xlink:href="#9" y="21.71"/><use xlink:href="#10" y="23.881"/><use xlink:href="#11" y="26.052"/><use xlink:href="#12" y="28.223"/><use xlink:href="#13" y="30.394"/><use xlink:href="#14" y="32.565"/></svg><svg x="2184"><use xlink:href="#a"/><use xlink:href="#b" x="-.004" y="36.882"/><use xlink:href="#2"/><use xlink:href="#3" y="4.342"/><use xlink:href="#4" y="8.684"/><use xlink:href="#5" y="10.855"/><use xlink:href="#6" y="13.026"/><use xlink:href="#7" y="17.368"/><use xlink:href="#8" y="19.539"/><use xlink:href="#9" y="21.71"/><use xlink:href="#10" y="23.881"/><use xlink:href="#11" y="26.052"/><use xlink:href="#12" y="28.223"/><use xlink:href="#13" y="30.394"/><use xlink:href="#14" y="32.565"/></svg><svg x="2268"><use xlink:href="#a"/><use xlink:href="#b" x="-.004" y="41.224"/><use xlink:href="#2"/><use xlink:href="#3" y="4.342"/><use xlink:href="#4" y="8.684"/><use xlink:href="#5" y="10.855"/><use xlink:href="#6" y="13.026"/><use xlink:href="#7" y="17.368"/><use xlink:href="#8" y="19.539"/><use xlink:href="#9" y="21.71"/><use xlink:href="#10" y="23.881"/><use xlink:href="#11" y="26.052"/><use xlink:href="#12" y="28.223"/><use xlink:href="#13" y="30.394"/><use xlink:href="#14" y="32.565"/><use xlink:href="#15" y="36.907"/><use xlink:href="#16" y="39.078"/></svg><svg x="2352"><use xlink:href="#a"/><use xlink:href="#b" x="-.004" y="43.395"/><use xlink:href="#2"/><use xlink:href="#3" y="4.342"/><use xlink:href="#4" y="8.684"/><use xlink:href="#5" y="10.855"/><use xlink:href="#6" y="13.026"/><use xlink:href="#7" y="17.368"/><use xlink:href="#8" y="19.539"/><use xlink:href="#9" y="21.71"/><use xlink:href="#10" y="23.881"/><use xlink:href="#11" y="26.052"/><use xlink:href="#12" y="28.223"/><use xlink:href="#13" y="30.394"/><use xlink:href="#14" y="32.565"/><use xlink:href="#15" y="36.907"/><use xlink:href="#16" y="39.078"/></svg><svg x="2436"><use xlink:href="#a"/><use xlink:href="#b" x="-.004" y="43.395"/><use xlink:href="#2"/><use xlink:href="#3" y="4.342"/><use xlink:href="#4" y="8.684"/><use xlink:href="#5" y="10.855"/><use xlink:href="#6" y="13.026"/><use xlink:href="#7" y="17.368"/><use xlink:href="#8" y="19.539"/><use xlink:href="#9" y="21.71"/><use xlink:href="#10" y="23.881"/><use xlink:href="#11" y="26.052"/><use xlink:href="#12" y="28.223"/><use xlink:href="#13" y="30.394"/><use xlink:href="#14" y="32.565"/><use xlink:href="#15" y="36.907"/><use xlink:href="#16" y="39.078"/></svg></svg></g></g></svg></svg>